# xmcd
#
# Track frame offsets: 
#        150
#        11986
#        23689
#        36725
#        49973
#        61026
#        71834
#        80285
#        91852
#        105087
#        118395
#        130951
#        140855
#        153449
#        165105
#        177107
#        190115
#        199770
#        210820
#        221370
#        233022
#        244499
#        255509
#        272781
#        294875
#        307763
#        324201
#
# Disc length: 4551 seconds
#
# Revision: 0
# Processed by: cddbd v1.5.2PL0 Copyright (c) Steve Scherf et al.
# Submitted via: ExactAudioCopy v0.99pb4
#
DISCID=7011c51b
DTITLE=Houston Wells - Then and Now CD1
DYEAR=2008
DGENRE=Country
TTITLE0=This Song Is Just For You
TTITLE1=North Wind
TTITLE2=Only The Heartaches
TTITLE3=Can't Stop Pretending
TTITLE4=Blowing Wild
TTITLE5=Crazy Dreams
TTITLE6=Girl Down The street
TTITLE7=Ramona
TTITLE8=Anna Marie
TTITLE9=Strangers
TTITLE10=Hula Love
TTITLE11=Call Me Another Time
TTITLE12=All For The Love Of A Girl
TTITLE13=The Wild Side Of Life
TTITLE14=Galway Bay
TTITLE15=We'll Remember You
TTITLE16=Blue Of The Night
TTITLE17=Does My Ring Hurt Your Finger
TTITLE18=Teach Me Little Children
TTITLE19=Above And Beyond
TTITLE20=When My Blue Moon Turns To Gold
TTITLE21=Hello Mary Lou
TTITLE22=I Won't Go Hunting With You Jake
TTITLE23=Just For Old Time's Sake
TTITLE24=Little Black Book
TTITLE25=Little Daughter
TTITLE26=Ireland
EXTD=
EXTT0=
EXTT1=
EXTT2=
EXTT3=
EXTT4=
EXTT5=
EXTT6=
EXTT7=
EXTT8=
EXTT9=
EXTT10=
EXTT11=
EXTT12=
EXTT13=
EXTT14=
EXTT15=
EXTT16=
EXTT17=
EXTT18=
EXTT19=
EXTT20=
EXTT21=
EXTT22=
EXTT23=
EXTT24=
EXTT25=
EXTT26=
PLAYORDER=
